<svg width="42" height="70" viewBox="0 0 42 70" fill="none" xmlns="http://www.w3.org/2000/svg">
<path d="M36.1669 32.6666H35.0002V30.3333H36.1669C38.0999 30.3333 39.6669 28.7663 39.6669 26.8333V6.78528C41.4859 6.14463 42.4411 4.15065 41.8003 2.33167C41.3074 0.932258 39.984 -0.00282549 38.5002 -5.46594e-05H3.50024C1.57174 -0.00370049 0.00549437 1.55672 0.00184854 3.48521C-0.00106813 4.96892 0.934161 6.29236 2.33358 6.78528V26.8333C2.33358 28.7663 3.90056 30.3333 5.83358 30.3333H7.00024V32.6666H5.83358C2.61358 32.6704 0.00403581 35.2799 0.000244141 38.4999C0.000244141 39.1442 0.522619 39.6666 1.16691 39.6666C1.14401 47.4627 5.71691 54.5401 12.8336 57.7231V68.8333C12.8336 69.4775 13.356 69.9999 14.0002 69.9999H28.0002C28.6445 69.9999 29.1669 69.4775 29.1669 68.8333V57.7231C36.2826 54.539 40.855 47.4623 40.8336 39.6666C41.4779 39.6666 42.0002 39.1442 42.0002 38.4999C41.9965 35.2799 39.3869 32.6704 36.1669 32.6666ZM2.33358 3.49994C2.33358 2.85565 2.85595 2.33328 3.50024 2.33328H38.5002C39.1445 2.33328 39.6669 2.85565 39.6669 3.49994C39.6669 4.14424 39.1445 4.66661 38.5002 4.66661H3.50024C2.85595 4.66661 2.33358 4.14424 2.33358 3.49994ZM5.83358 27.9999C5.18929 27.9999 4.66691 27.4776 4.66691 26.8333V6.99994H37.3336V26.8333C37.3336 27.4776 36.8112 27.9999 36.1669 27.9999H5.83358ZM32.6669 30.3333V32.6666H9.33358V30.3333H32.6669ZM15.1669 67.6666V58.6273L15.2754 58.6564C15.3921 58.6914 15.5087 58.7183 15.6254 58.7509C16.0524 58.8723 16.4836 58.9789 16.9192 59.0706C17.1281 59.1149 17.3381 59.1511 17.5481 59.1873C17.9086 59.2503 18.2714 59.3039 18.6366 59.3448C18.8582 59.3716 19.0776 59.3996 19.3016 59.4183C19.7768 59.4579 20.2531 59.4805 20.7307 59.4859C20.8194 59.4859 20.9057 59.4988 20.9944 59.4988C21.0831 59.4988 21.1706 59.4871 21.2592 59.4859C21.7368 59.4805 22.2128 59.4579 22.6872 59.4183C22.9112 59.3996 23.1329 59.3704 23.3557 59.3448C23.7174 59.3016 24.0767 59.2503 24.4349 59.1884C24.6484 59.1511 24.8619 59.1126 25.0742 59.0718C25.4989 58.9843 25.9177 58.8781 26.3331 58.7614C26.4626 58.7253 26.5944 58.6961 26.7239 58.6576C26.7577 58.6471 26.7939 58.6401 26.8277 58.6296L26.8336 67.6666H15.1669ZM27.5569 55.8891C24.4167 57.1554 20.9773 57.4868 17.6531 56.8434C16.5517 56.6315 15.4743 56.3107 14.4366 55.8856C7.81181 53.2313 3.47749 46.8032 3.50024 39.6666H38.5002C38.5224 46.806 34.185 53.2358 27.5569 55.8891ZM2.53308 37.3333C3.02935 35.9359 4.35074 35.0017 5.83358 34.9999H36.1669C37.6497 35.0017 38.9711 35.9359 39.4674 37.3333H2.53308Z" fill="white"/>
<path d="M16.3337 10.5H12.619C11.9747 8.67751 9.97491 7.72245 8.15257 8.36688C6.33024 9.01132 5.37503 11.0108 6.01932 12.8333C6.66361 14.6558 8.66343 15.6109 10.4858 14.9664C11.4825 14.6141 12.2665 13.83 12.6189 12.8333H16.3337C16.978 12.8333 17.5003 12.3109 17.5003 11.6667C17.5003 11.0224 16.978 10.5 16.3337 10.5ZM9.33368 12.8333C8.68939 12.8333 8.16701 12.3109 8.16701 11.6667C8.16701 11.0224 8.68939 10.5 9.33368 10.5C9.97797 10.5 10.5003 11.0224 10.5003 11.6667C10.5003 12.3109 9.97797 12.8333 9.33368 12.8333Z" fill="white"/>
</svg>
